<svg xmlns="http://www.w3.org/2000/svg" viewBox="0 0 100 80" role="img" aria-label="Prabhatians open book and sunrise"><path d="M50 6v12M30 12l7 10M18 29l12 5M70 12l-7 10M82 29l-12 5" fill="none" stroke="#ffbf3c" stroke-width="4" stroke-linecap="round"/><path d="M28 37a22 22 0 0 1 44 0" fill="#ffbf3c"/><path d="M6 43c16-5 30-3 44 5v25C35 65 21 64 6 69z" fill="#d7edff" stroke="#68c2f5" stroke-width="3" stroke-linejoin="round"/><path d="M94 43c-16-5-30-3-44 5v25c15-8 29-9 44-4z" fill="#d7edff" stroke="#68c2f5" stroke-width="3" stroke-linejoin="round"/><path d="M13 51c12-3 22-1 31 4M13 59c12-3 22-1 31 4M87 51c-12-3-22-1-31 4M87 59c-12-3-22-1-31 4" stroke="#2875b9" stroke-width="2" fill="none" stroke-linecap="round"/><path d="M50 48v26" stroke="#ffbf3c" stroke-width="3"/></svg>
